<svg width="141" height="36" viewBox="0 0 141 36" fill="none" xmlns="http://www.w3.org/2000/svg">
<path d="M12.0123 12.0453H5.05713V14.0827H14.0498V5.0918H12.0123V12.0453Z" fill="#F9FAFA"/>
<path d="M17.2103 18.3667H15.1729V20.4042H17.2103V18.3667Z" fill="#F9FAFA"/>
<path d="M20.3705 5.09375H18.333V14.0829H20.3705V5.09375Z" fill="#F9FAFA"/>
<path d="M17.2103 21.5273H15.1729V30.5183H17.2103V21.5273Z" fill="#F9FAFA"/>
<path d="M17.2103 15.2061H15.1729V17.2435H17.2103V15.2061Z" fill="#F9FAFA"/>
<path d="M14.0481 15.2061H5.05713V17.2435H14.0481V15.2061Z" fill="#F9FAFA"/>
<path d="M5.05713 23.5648H12.0123V30.5183H14.0481V21.5273H5.05713V23.5648Z" fill="#F9FAFA"/>
<path d="M14.0481 18.3667H5.05713V20.4042H14.0481V18.3667Z" fill="#F9FAFA"/>
<path d="M17.2103 5.09375H15.1729V14.0829H17.2103V5.09375Z" fill="#F9FAFA"/>
<path d="M30.4873 18.3667H21.4946V20.4042H30.4873V18.3667Z" fill="#F9FAFA"/>
<path d="M23.5321 5.09375H21.4946V14.0829H30.4873V12.0455H23.5321V5.09375Z" fill="#F9FAFA"/>
<path d="M30.4873 15.2061H21.4946V17.2435H30.4873V15.2061Z" fill="#F9FAFA"/>
<path d="M20.3724 15.2061H18.335V17.2435H20.3724V15.2061Z" fill="#F9FAFA"/>
<path d="M20.3724 18.3667H18.335V20.4042H20.3724V18.3667Z" fill="#F9FAFA"/>
<path d="M20.3705 21.5273H18.333V30.5183H20.3705V21.5273Z" fill="#F9FAFA"/>
<path d="M21.4927 30.5183H23.5319V23.5648H30.4854V21.5273H21.4927V30.5183Z" fill="#F9FAFA"/>
<path d="M35.5214 16.7542C34.9885 7.35575 27.2062 0 17.7729 0C13.0258 0 8.56255 1.84938 5.20509 5.2051C1.84938 8.56255 0 13.0258 0 17.7729C0 22.52 1.84938 26.985 5.20509 30.3407C8.5608 33.6982 13.0258 35.5458 17.7729 35.5458C27.2062 35.5458 34.9885 28.1918 35.5197 18.7899H35.5475V16.7524H35.5197L35.5214 16.7542ZM33.5101 17.7712C33.5101 21.9749 31.8731 25.9262 28.9006 28.8988C25.9297 31.8714 21.9749 33.5083 17.7712 33.5083C13.5674 33.5083 9.61436 31.8714 6.6435 28.8988C3.67091 25.9262 2.03223 21.9749 2.03223 17.7712C2.03223 13.5674 3.67091 9.61436 6.6435 6.64176C9.6161 3.66917 13.5674 2.03223 17.7712 2.03223C21.9749 2.03223 25.9297 3.66917 28.9006 6.64176C31.8731 9.61436 33.5101 13.5674 33.5101 17.7712" fill="#F9FAFA"/>
<path d="M122.142 12.0454H117.174V23.5649H120.267V20.1779H122.527C124.246 20.1779 125.289 19.8122 126.055 19.0477C126.714 18.3703 127.097 17.3446 127.097 16.042C127.097 14.8073 126.75 13.853 126.106 13.2087C125.289 12.3937 124.056 12.0454 122.144 12.0454M123.708 17.3794C123.553 17.6406 123.414 17.6929 123.119 17.6929H120.269V14.6349H122.111C122.928 14.6349 123.361 14.7046 123.64 14.9832C123.849 15.1904 123.971 15.6258 123.971 16.0612C123.971 16.4965 123.882 17.0851 123.708 17.3811M89.9452 17.3463H85.8616V19.3455H87.4602V20.3363C87.4602 20.4582 87.4428 20.5261 87.3035 20.5784C86.8177 20.7351 85.8964 20.8396 85.2173 20.8396H85.1825C83.2721 20.8396 82.1942 19.7094 82.1942 17.7468C82.1942 15.7843 83.3418 14.6715 84.7314 14.6715C85.4106 14.6715 85.879 14.8282 86.5042 15.2096L88.2944 16.305L90.1194 15.0024C89.4246 13.2122 87.3558 11.8748 84.9578 11.8748C81.6561 11.8748 78.9621 14.1334 78.9621 17.8165C78.9621 21.1531 81.0988 23.7408 84.5225 23.7408C85.4263 23.7408 86.1733 23.5492 87.0075 23.0634L87.859 22.5758L88.3449 23.5667H90.4816V17.8148C90.4816 17.4491 90.3597 17.3463 89.9435 17.3463M134.099 11.873C130.867 11.873 128.155 14.2187 128.155 17.8148C128.155 21.4108 130.867 23.7391 134.099 23.7391C137.331 23.7391 140.041 21.4108 140.041 17.8148C140.041 14.2187 137.329 11.873 134.099 11.873ZM134.099 20.716C132.361 20.716 131.387 19.6398 131.387 17.8148C131.387 15.9898 132.361 14.8961 134.099 14.8961C135.837 14.8961 136.809 15.9915 136.809 17.8148C136.809 19.638 135.837 20.716 134.099 20.716ZM112.187 18.823C112.187 19.5022 112.049 19.9358 111.718 20.2301C111.354 20.561 110.692 20.7525 109.909 20.7525C109.125 20.7525 108.432 20.561 108.068 20.2301C107.739 19.9358 107.598 19.5022 107.598 18.823V12.0472H104.505V18.5967C104.505 20.2824 104.923 21.5153 105.825 22.386C106.713 23.2375 108.086 23.7408 109.874 23.7408C111.662 23.7408 113.038 23.2375 113.925 22.386C114.828 21.517 115.229 20.2824 115.229 18.5967V12.0472H112.187V18.823ZM71.0038 12.0472H66.7983V23.5667H71.0038C73.3669 23.5667 75.2094 23.0634 76.4249 21.8461C77.3461 20.9267 77.8842 19.5875 77.8842 17.8148C77.8842 16.042 77.3461 14.6872 76.4249 13.766C75.2076 12.5505 73.3669 12.0472 71.0038 12.0472ZM73.818 20.2127C73.1928 20.7699 72.2542 20.9075 70.9168 20.9075H69.8911V14.7046H70.9168C72.2542 14.7046 73.1928 14.8439 73.818 15.3994C74.3578 15.8696 74.6695 16.6341 74.6695 17.8148C74.6695 18.9954 74.3561 19.7443 73.818 20.2127ZM102.527 15.833C102.527 14.6854 102.161 13.7642 101.538 13.1391C100.737 12.3572 99.469 12.0454 97.5413 12.0454H92.4999V23.5649H95.5944V19.9341H97.2975C97.6301 19.9341 97.6632 19.9689 97.853 20.2806L99.6084 23.2706C99.7651 23.5318 99.8522 23.5649 100.129 23.5649H103.206L100.617 19.3942C101.677 18.7168 102.527 17.4665 102.527 15.833ZM99.1399 17.1704C98.9658 17.4317 98.8091 17.4839 98.513 17.4839H95.5944V14.6332H97.5935C98.358 14.6332 98.7916 14.7028 99.0703 14.9641C99.2601 15.1556 99.3994 15.5718 99.3994 15.9898C99.3994 16.3363 99.3297 16.8744 99.1399 17.1704ZM58.8418 18.9954H64.1775V16.493H58.8418V14.6001H64.6982V12.0454H55.749V23.5649H64.8549V21.0103H58.8435V18.9954H58.8418ZM50.6397 12.3397L47.3032 16.5279H47.2509L43.897 12.3397C43.688 12.0785 43.6009 12.0454 43.2544 12.0454H40.752V23.5649H43.7054V16.4582H43.7228L45.9483 19.2723C46.0877 19.4465 46.2096 19.5005 46.469 19.5005H48.1913L50.6397 16.4582H50.6571V23.5649H53.6297V12.0454H51.284C50.9358 12.0454 50.8487 12.0785 50.6397 12.3397Z" fill="#F9FAFA"/>
</svg>
